<svg xmlns="http://www.w3.org/2000/svg" width="1380" height="520" viewBox="0 0 1380 520">
<rect width="100%" height="100%" fill="#f8fafc"/>
<text x="48" y="28" font-size="20" font-weight="700" fill="#111827">Figure 5. M4 training-curve diagnostics from comprehensive_sweep_m4_results.csv</text>
<text x="48" y="48" font-size="12" fill="#4b5563">Validation curves are shown directly from the stored val_loss_curve traces. Lower is better.</text>
<text x="48.0" y="72.0" font-size="14" font-weight="700" fill="#111827">A. Yearly: representative architectures converge to the same band</text>
<text x="48.0" y="90.0" font-size="11" fill="#4b5563">Mean validation curves across 10 seeds for four near-frontier M4-Yearly models.</text>
<rect x="48.0" y="110.0" width="409.3" height="280.0" fill="#ffffff" stroke="#d1d5db" stroke-width="1"/>
<line x1="48.0" y1="385.61" x2="457.3" y2="385.61" stroke="#e5e7eb" stroke-width="1"/>
<text x="40.0" y="389.61" font-size="11" text-anchor="end" fill="#4b5563">14</text>
<line x1="48.0" y1="354.86" x2="457.3" y2="354.86" stroke="#e5e7eb" stroke-width="1"/>
<text x="40.0" y="358.86" font-size="11" text-anchor="end" fill="#4b5563">18</text>
<line x1="48.0" y1="324.10" x2="457.3" y2="324.10" stroke="#e5e7eb" stroke-width="1"/>
<text x="40.0" y="328.10" font-size="11" text-anchor="end" fill="#4b5563">22</text>
<line x1="48.0" y1="293.35" x2="457.3" y2="293.35" stroke="#e5e7eb" stroke-width="1"/>
<text x="40.0" y="297.35" font-size="11" text-anchor="end" fill="#4b5563">26</text>
<line x1="48.0" y1="262.59" x2="457.3" y2="262.59" stroke="#e5e7eb" stroke-width="1"/>
<text x="40.0" y="266.59" font-size="11" text-anchor="end" fill="#4b5563">30</text>
<line x1="48.00" y1="390.0" x2="48.00" y2="395.0" stroke="#9ca3af" stroke-width="1"/>
<text x="48.00" y="408.0" font-size="11" text-anchor="middle" fill="#4b5563">0</text>
<line x1="252.67" y1="390.0" x2="252.67" y2="395.0" stroke="#9ca3af" stroke-width="1"/>
<text x="252.67" y="408.0" font-size="11" text-anchor="middle" fill="#4b5563">59</text>
<line x1="457.33" y1="390.0" x2="457.33" y2="395.0" stroke="#9ca3af" stroke-width="1"/>
<text x="457.33" y="408.0" font-size="11" text-anchor="middle" fill="#4b5563">118</text>
<path d="M 48.00 113.84 L 51.50 296.14 L 55.00 325.62 L 58.50 350.74 L 61.99 353.38 L 65.49 367.42 L 68.99 365.03 L 72.49 367.95 L 75.99 372.17 L 79.49 367.71 L 82.99 373.89 L 86.48 374.82 L 89.98 378.40 L 93.48 376.08 L 96.98 375.95 L 100.48 377.79 L 103.98 381.46 L 107.48 378.34 L 110.97 376.79 L 114.47 379.04 L 117.97 379.18 L 121.47 373.29 L 124.97 378.05 L 128.47 380.81 L 131.97 380.81 L 135.46 382.64 L 138.96 384.45 L 142.46 382.80 L 145.96 378.27 L 149.46 381.60 L 152.96 380.01 L 156.46 381.71 L 159.95 377.20 L 163.45 380.53 L 166.95 380.49 L 170.45 383.01 L 173.95 385.29 L 177.45 380.17 L 180.95 382.38 L 184.44 382.22 L 187.94 382.02 L 191.44 384.24 L 194.94 383.08 L 198.44 384.73 L 201.94 383.25 L 205.44 384.40 L 208.93 385.04 L 212.43 384.08 L 215.93 383.79 L 219.43 383.15 L 222.93 385.34 L 226.43 384.58 L 229.93 385.22 L 233.42 386.77 L 236.92 386.80 L 240.42 383.89 L 243.92 385.92 L 247.42 383.30 L 250.92 385.27 L 254.42 384.87 L 257.91 385.38 L 261.41 386.29 L 264.91 385.45 L 268.41 384.64 L 271.91 383.96 L 275.41 384.73 L 278.91 386.20 L 282.40 387.19 L 285.90 387.99 L 289.40 386.68 L 292.90 384.96 L 296.40 386.19 L 299.90 386.53 L 303.40 386.98 L 306.89 385.72 L 310.39 385.64 L 313.89 386.99 L 317.39 386.15 L 320.89 387.71 L 324.39 386.33 L 327.89 387.28 L 331.38 386.33 L 334.88 387.88 L 338.38 385.94 L 341.88 387.27 L 345.38 386.15 L 348.88 387.87 L 352.38 388.30 L 355.87 386.49 L 359.37 377.40 L 362.87 375.45 L 366.37 374.60 L 369.87 385.25 L 373.37 387.33 L 376.87 387.74 L 380.36 384.80 L 383.86 386.91 L 387.36 388.08 L 390.86 386.56" fill="none" stroke="#111827" stroke-width="2.8" stroke-linecap="round"/>
<path d="M 48.00 291.57 L 51.50 339.75 L 55.00 359.20 L 58.50 370.92 L 61.99 374.46 L 65.49 374.91 L 68.99 378.85 L 72.49 379.78 L 75.99 379.97 L 79.49 378.35 L 82.99 380.42 L 86.48 377.70 L 89.98 376.97 L 93.48 381.71 L 96.98 379.72 L 100.48 381.30 L 103.98 382.17 L 107.48 381.83 L 110.97 382.79 L 114.47 384.81 L 117.97 386.67 L 121.47 381.90 L 124.97 384.38 L 128.47 380.24 L 131.97 381.55 L 135.46 379.39 L 138.96 376.86 L 142.46 383.14 L 145.96 384.11 L 149.46 384.30 L 152.96 384.22 L 156.46 382.26 L 159.95 382.25 L 163.45 382.80 L 166.95 382.70 L 170.45 381.40 L 173.95 382.01 L 177.45 381.54 L 180.95 380.89 L 184.44 384.94 L 187.94 382.57 L 191.44 381.14 L 194.94 379.44 L 198.44 378.83 L 201.94 381.94 L 205.44 384.97 L 208.93 381.80 L 212.43 376.56 L 215.93 379.78 L 219.43 372.93 L 222.93 384.70 L 226.43 385.36 L 229.93 371.57 L 233.42 384.22 L 236.92 385.79 L 240.42 378.70 L 243.92 374.78 L 247.42 383.65 L 250.92 386.90 L 254.42 387.56" fill="none" stroke="#0f766e" stroke-width="2.8" stroke-linecap="round"/>
<path d="M 48.00 293.96 L 51.50 347.16 L 55.00 361.53 L 58.50 369.83 L 61.99 364.57 L 65.49 354.77 L 68.99 362.20 L 72.49 357.52 L 75.99 364.32 L 79.49 364.81 L 82.99 372.24 L 86.48 364.88 L 89.98 364.46 L 93.48 364.05 L 96.98 368.15 L 100.48 377.99 L 103.98 368.92 L 107.48 375.70 L 110.97 378.34 L 114.47 376.56 L 117.97 374.07 L 121.47 369.17 L 124.97 373.25 L 128.47 378.14 L 131.97 381.35 L 135.46 378.32 L 138.96 379.10 L 142.46 377.60 L 145.96 382.12 L 149.46 382.91 L 152.96 378.12 L 156.46 380.72 L 159.95 379.19 L 163.45 377.66 L 166.95 380.20 L 170.45 377.86 L 173.95 376.86 L 177.45 381.51 L 180.95 383.10 L 184.44 377.93 L 187.94 378.67 L 191.44 381.55 L 194.94 381.96 L 198.44 383.19 L 201.94 381.60 L 205.44 381.38 L 208.93 376.83 L 212.43 378.59 L 215.93 378.40 L 219.43 374.91 L 222.93 378.11 L 226.43 376.68 L 229.93 380.56 L 233.42 379.18 L 236.92 376.13 L 240.42 379.16 L 243.92 382.23 L 247.42 382.09 L 250.92 382.94 L 254.42 384.30 L 257.91 383.78 L 261.41 383.49 L 264.91 383.80 L 268.41 382.10 L 271.91 382.79 L 275.41 382.22 L 278.91 385.57 L 282.40 383.56 L 285.90 384.19 L 289.40 384.37 L 292.90 385.19 L 296.40 383.71 L 299.90 380.98 L 303.40 371.99 L 306.89 383.60 L 310.39 378.58 L 313.89 386.23 L 317.39 382.92 L 320.89 384.48 L 324.39 380.73 L 327.89 384.46 L 331.38 386.72 L 334.88 387.93 L 338.38 384.86 L 341.88 384.95 L 345.38 384.54 L 348.88 386.63 L 352.38 384.62 L 355.87 385.76 L 359.37 386.71 L 362.87 387.03 L 366.37 376.46 L 369.87 381.64 L 373.37 386.12 L 376.87 383.31 L 380.36 377.36 L 383.86 381.85 L 387.36 387.45 L 390.86 388.01 L 394.36 387.26 L 397.86 386.79 L 401.36 386.60 L 404.85 386.09 L 408.35 386.40 L 411.85 386.34 L 415.35 384.63 L 418.85 383.15 L 422.35 384.17 L 425.85 384.71 L 429.34 383.54 L 432.84 386.74 L 436.34 386.05 L 439.84 384.47 L 443.34 384.04 L 446.84 384.59 L 450.34 386.04 L 453.83 386.93 L 457.33 385.24" fill="none" stroke="#2563eb" stroke-width="2.8" stroke-linecap="round"/>
<path d="M 48.00 251.41 L 51.50 275.87 L 55.00 308.11 L 58.50 335.96 L 61.99 359.74 L 65.49 371.18 L 68.99 375.95 L 72.49 378.71 L 75.99 381.22 L 79.49 382.81 L 82.99 383.98 L 86.48 382.97 L 89.98 383.41 L 93.48 384.89 L 96.98 385.06 L 100.48 385.82 L 103.98 386.45 L 107.48 386.10 L 110.97 384.46 L 114.47 384.88 L 117.97 385.83 L 121.47 386.89 L 124.97 386.25 L 128.47 386.62 L 131.97 386.04 L 135.46 386.26 L 138.96 387.12 L 142.46 386.43 L 145.96 387.23 L 149.46 386.44 L 152.96 386.22 L 156.46 387.66 L 159.95 386.41 L 163.45 387.75 L 166.95 385.02 L 170.45 387.00 L 173.95 386.21 L 177.45 384.60 L 180.95 387.02 L 184.44 386.35 L 187.94 387.59 L 191.44 386.49 L 194.94 387.63 L 198.44 387.87 L 201.94 386.62 L 205.44 385.80 L 208.93 386.56 L 212.43 386.85 L 215.93 387.07 L 219.43 385.31 L 222.93 385.88 L 226.43 385.71 L 229.93 386.26 L 233.42 386.50 L 236.92 387.26 L 240.42 386.19 L 243.92 386.06 L 247.42 386.17 L 250.92 385.22 L 254.42 385.88 L 257.91 386.67 L 261.41 386.09 L 264.91 385.90 L 268.41 385.11 L 271.91 388.34 L 275.41 387.69 L 278.91 385.06 L 282.40 385.97 L 285.90 386.20 L 289.40 386.85 L 292.90 386.02 L 296.40 387.27 L 299.90 387.24 L 303.40 384.03 L 306.89 388.46 L 310.39 385.41 L 313.89 387.32 L 317.39 386.02" fill="none" stroke="#dc2626" stroke-width="2.8" stroke-linecap="round"/>
<line x1="58.0" y1="424.0" x2="76.0" y2="424.0" stroke="#111827" stroke-width="3.0" stroke-linecap="round"/>
<text x="82.0" y="428.0" font-size="11" fill="#374151">NBEATS-IG_10s_ag0</text>
<line x1="58.0" y1="440.0" x2="76.0" y2="440.0" stroke="#0f766e" stroke-width="3.0" stroke-linecap="round"/>
<text x="82.0" y="444.0" font-size="11" fill="#374151">TW_10s_td3_bdeq_coif2</text>
<line x1="58.0" y1="456.0" x2="76.0" y2="456.0" stroke="#2563eb" stroke-width="3.0" stroke-linecap="round"/>
<text x="82.0" y="460.0" font-size="11" fill="#374151">T+Db3V3_30s_bd2eq</text>
<line x1="58.0" y1="472.0" x2="76.0" y2="472.0" stroke="#dc2626" stroke-width="3.0" stroke-linecap="round"/>
<text x="82.0" y="476.0" font-size="11" fill="#374151">TWAELG_10s_ld16_coif2_agf</text>
<text x="485.3" y="72.0" font-size="14" font-weight="700" fill="#111827">B. Quarterly: 30-stack Generic is seed-sensitive without active_g</text>
<text x="485.3" y="90.0" font-size="11" fill="#4b5563">NBEATS-G_30s_ag0: mean SMAPE 12.74 ± 7.41 across 10 seeds.</text>
<rect x="485.3" y="110.0" width="409.3" height="280.0" fill="#ffffff" stroke="#d1d5db" stroke-width="1"/>
<line x1="485.3" y1="390.33" x2="894.7" y2="390.33" stroke="#e5e7eb" stroke-width="1"/>
<text x="477.3" y="394.33" font-size="11" text-anchor="end" fill="#4b5563">10</text>
<line x1="485.3" y1="364.84" x2="894.7" y2="364.84" stroke="#e5e7eb" stroke-width="1"/>
<text x="477.3" y="368.84" font-size="11" text-anchor="end" fill="#4b5563">15</text>
<line x1="485.3" y1="339.36" x2="894.7" y2="339.36" stroke="#e5e7eb" stroke-width="1"/>
<text x="477.3" y="343.36" font-size="11" text-anchor="end" fill="#4b5563">20</text>
<line x1="485.3" y1="313.87" x2="894.7" y2="313.87" stroke="#e5e7eb" stroke-width="1"/>
<text x="477.3" y="317.87" font-size="11" text-anchor="end" fill="#4b5563">25</text>
<line x1="485.3" y1="288.38" x2="894.7" y2="288.38" stroke="#e5e7eb" stroke-width="1"/>
<text x="477.3" y="292.38" font-size="11" text-anchor="end" fill="#4b5563">30</text>
<line x1="485.33" y1="390.0" x2="485.33" y2="395.0" stroke="#9ca3af" stroke-width="1"/>
<text x="485.33" y="408.0" font-size="11" text-anchor="middle" fill="#4b5563">0</text>
<line x1="690.00" y1="390.0" x2="690.00" y2="395.0" stroke="#9ca3af" stroke-width="1"/>
<text x="690.00" y="408.0" font-size="11" text-anchor="middle" fill="#4b5563">33</text>
<line x1="894.67" y1="390.0" x2="894.67" y2="395.0" stroke="#9ca3af" stroke-width="1"/>
<text x="894.67" y="408.0" font-size="11" text-anchor="middle" fill="#4b5563">66</text>
<path d="M 485.33 341.69 L 491.63 374.19 L 497.93 375.01 L 504.23 377.00 L 510.52 382.51 L 516.82 384.68 L 523.12 382.85 L 529.42 383.37 L 535.71 384.25 L 542.01 385.53 L 548.31 384.33 L 554.61 383.87 L 560.90 385.17 L 567.20 385.36 L 573.50 384.45 L 579.79 384.24 L 586.09 386.29 L 592.39 386.36 L 598.69 386.02 L 604.98 384.53 L 611.28 386.90 L 617.58 385.50 L 623.88 384.67 L 630.17 385.84 L 636.47 386.67 L 642.77 385.67 L 649.07 385.82 L 655.36 384.77 L 661.66 385.31 L 667.96 387.45 L 674.26 387.09 L 680.55 384.92 L 686.85 384.26 L 693.15 384.82 L 699.45 384.27 L 705.74 384.53 L 712.04 386.58 L 718.34 385.78 L 724.64 384.33 L 730.93 384.92 L 737.23 386.38 L 743.53 384.88 L 749.83 385.75 L 756.12 382.93 L 762.42 382.55 L 768.72 384.59 L 775.02 382.82 L 781.31 385.96 L 787.61 385.66 L 793.91 383.76 L 800.21 383.07 L 806.50 381.23 L 812.80 384.22 L 819.10 385.61 L 825.39 385.21 L 831.69 384.34 L 837.99 383.20 L 844.29 384.75 L 850.58 384.99 L 856.88 383.73" fill="none" stroke="#f59e0b" stroke-width="1.8" stroke-linecap="round" stroke-opacity="0.45"/>
<path d="M 485.33 245.68 L 491.63 293.92 L 497.93 377.60 L 504.23 384.76 L 510.52 382.75 L 516.82 384.62 L 523.12 384.94 L 529.42 386.38 L 535.71 385.67 L 542.01 384.87 L 548.31 385.22 L 554.61 387.24 L 560.90 386.79 L 567.20 385.29 L 573.50 383.80 L 579.79 384.79 L 586.09 384.79 L 592.39 385.77 L 598.69 383.15 L 604.98 386.31 L 611.28 384.57 L 617.58 384.95 L 623.88 384.09 L 630.17 386.17 L 636.47 385.34 L 642.77 384.47 L 649.07 384.62 L 655.36 386.57 L 661.66 386.10 L 667.96 386.25 L 674.26 385.65 L 680.55 384.36 L 686.85 385.58 L 693.15 384.78 L 699.45 385.35 L 705.74 385.45 L 712.04 387.09 L 718.34 384.77 L 724.64 385.60 L 730.93 383.61 L 737.23 385.83 L 743.53 381.55" fill="none" stroke="#f59e0b" stroke-width="1.8" stroke-linecap="round" stroke-opacity="0.45"/>
<path d="M 485.33 358.79 L 491.63 379.86 L 497.93 381.42 L 504.23 381.90 L 510.52 382.61 L 516.82 384.20 L 523.12 382.67 L 529.42 385.46 L 535.71 381.31 L 542.01 386.08 L 548.31 384.20 L 554.61 384.33 L 560.90 382.95 L 567.20 385.30 L 573.50 385.44 L 579.79 383.37 L 586.09 386.49 L 592.39 384.95 L 598.69 384.72 L 604.98 382.41 L 611.28 385.07 L 617.58 386.37 L 623.88 383.36 L 630.17 385.29 L 636.47 383.97 L 642.77 385.27 L 649.07 385.80 L 655.36 384.63 L 661.66 387.08 L 667.96 385.53 L 674.26 385.81 L 680.55 387.20 L 686.85 386.35 L 693.15 385.46 L 699.45 378.77 L 705.74 381.19 L 712.04 384.43 L 718.34 386.34 L 724.64 383.34 L 730.93 386.50 L 737.23 385.28 L 743.53 385.12 L 749.83 382.56 L 756.12 385.05 L 762.42 385.35 L 768.72 383.62 L 775.02 383.50 L 781.31 382.27 L 787.61 385.80 L 793.91 385.76 L 800.21 384.33 L 806.50 384.49 L 812.80 385.74 L 819.10 384.18 L 825.39 383.80 L 831.69 383.74 L 837.99 384.04 L 844.29 379.43 L 850.58 383.81 L 856.88 385.80 L 863.18 384.06 L 869.48 385.95" fill="none" stroke="#f59e0b" stroke-width="1.8" stroke-linecap="round" stroke-opacity="0.45"/>
<path d="M 485.33 115.10 L 491.63 141.31 L 497.93 281.54 L 504.23 380.37 L 510.52 382.95 L 516.82 381.21 L 523.12 383.64 L 529.42 384.33 L 535.71 384.48 L 542.01 387.04 L 548.31 387.10 L 554.61 385.19 L 560.90 385.33 L 567.20 386.67 L 573.50 385.95 L 579.79 385.42 L 586.09 384.51 L 592.39 385.51 L 598.69 384.62 L 604.98 384.23 L 611.28 385.01 L 617.58 386.98 L 623.88 385.88 L 630.17 384.20 L 636.47 385.78 L 642.77 386.93 L 649.07 386.51 L 655.36 386.14 L 661.66 385.24 L 667.96 386.09 L 674.26 385.20 L 680.55 384.74 L 686.85 384.57 L 693.15 383.71 L 699.45 386.66 L 705.74 385.77 L 712.04 385.36 L 718.34 385.43 L 724.64 386.81 L 730.93 386.11 L 737.23 385.55" fill="none" stroke="#f59e0b" stroke-width="1.8" stroke-linecap="round" stroke-opacity="0.45"/>
<path d="M 485.33 336.92 L 491.63 375.90 L 497.93 383.69 L 504.23 381.57 L 510.52 381.54 L 516.82 385.92 L 523.12 385.28 L 529.42 384.53 L 535.71 383.98 L 542.01 386.48 L 548.31 386.26 L 554.61 384.73 L 560.90 384.47 L 567.20 385.45 L 573.50 386.21 L 579.79 384.46 L 586.09 384.36 L 592.39 384.11 L 598.69 384.32 L 604.98 383.40 L 611.28 384.57 L 617.58 385.19 L 623.88 385.53 L 630.17 384.57 L 636.47 384.25 L 642.77 386.03 L 649.07 386.98 L 655.36 384.68 L 661.66 383.84 L 667.96 385.79 L 674.26 385.61 L 680.55 385.12 L 686.85 384.19 L 693.15 386.01 L 699.45 384.84 L 705.74 385.18 L 712.04 384.07 L 718.34 384.30 L 724.64 385.27 L 730.93 382.96 L 737.23 384.39 L 743.53 385.77 L 749.83 384.94 L 756.12 383.25 L 762.42 384.93 L 768.72 384.29 L 775.02 382.47 L 781.31 385.84 L 787.61 386.55 L 793.91 383.06 L 800.21 383.99 L 806.50 386.43 L 812.80 384.83 L 819.10 384.19 L 825.39 384.36 L 831.69 385.28 L 837.99 384.94" fill="none" stroke="#f59e0b" stroke-width="1.8" stroke-linecap="round" stroke-opacity="0.45"/>
<path d="M 485.33 353.82 L 491.63 379.40 L 497.93 379.09 L 504.23 379.26 L 510.52 381.15 L 516.82 385.87 L 523.12 385.58 L 529.42 383.34 L 535.71 383.08 L 542.01 385.37 L 548.31 385.01 L 554.61 386.22 L 560.90 384.33 L 567.20 385.68 L 573.50 384.70 L 579.79 384.77 L 586.09 384.33 L 592.39 385.74 L 598.69 385.99 L 604.98 384.47 L 611.28 385.35 L 617.58 386.33 L 623.88 385.65 L 630.17 384.99 L 636.47 386.22 L 642.77 385.12 L 649.07 383.65 L 655.36 381.66 L 661.66 385.28 L 667.96 385.96 L 674.26 384.03 L 680.55 385.47 L 686.85 385.59 L 693.15 384.60 L 699.45 383.40 L 705.74 386.94 L 712.04 385.79 L 718.34 384.83 L 724.64 384.25 L 730.93 385.73 L 737.23 385.28 L 743.53 382.17 L 749.83 381.76 L 756.12 385.46 L 762.42 383.80 L 768.72 385.91 L 775.02 385.37 L 781.31 384.87 L 787.61 384.06 L 793.91 386.00 L 800.21 385.17 L 806.50 384.41 L 812.80 384.74 L 819.10 385.58 L 825.39 382.67 L 831.69 383.73 L 837.99 383.09 L 844.29 385.77 L 850.58 384.89 L 856.88 384.48 L 863.18 383.61 L 869.48 385.16 L 875.77 384.51 L 882.07 384.37 L 888.37 383.81 L 894.67 379.85" fill="none" stroke="#f59e0b" stroke-width="1.8" stroke-linecap="round" stroke-opacity="0.45"/>
<path d="M 485.33 354.20 L 491.63 379.12 L 497.93 381.13 L 504.23 382.07 L 510.52 384.47 L 516.82 383.93 L 523.12 381.40 L 529.42 385.70 L 535.71 385.84 L 542.01 384.49 L 548.31 383.15 L 554.61 385.79 L 560.90 386.24 L 567.20 385.18 L 573.50 383.83 L 579.79 386.30 L 586.09 385.11 L 592.39 385.14 L 598.69 382.16 L 604.98 386.23 L 611.28 385.10 L 617.58 385.15 L 623.88 385.73 L 630.17 386.32 L 636.47 384.50 L 642.77 386.35 L 649.07 384.78 L 655.36 386.91 L 661.66 385.95 L 667.96 384.10 L 674.26 385.45 L 680.55 386.81 L 686.85 386.81 L 693.15 385.27 L 699.45 381.18 L 705.74 384.56 L 712.04 385.66 L 718.34 385.52 L 724.64 382.86 L 730.93 384.52 L 737.23 385.64 L 743.53 382.26 L 749.83 384.19 L 756.12 384.14 L 762.42 385.59 L 768.72 384.15 L 775.02 383.81 L 781.31 385.60 L 787.61 384.26 L 793.91 384.89 L 800.21 384.40 L 806.50 381.87 L 812.80 385.67 L 819.10 384.65 L 825.39 385.36 L 831.69 383.59 L 837.99 383.27 L 844.29 384.75" fill="none" stroke="#f59e0b" stroke-width="1.8" stroke-linecap="round" stroke-opacity="0.45"/>
<path d="M 485.33 365.85 L 491.63 376.43 L 497.93 381.66 L 504.23 385.02 L 510.52 380.01 L 516.82 376.77 L 523.12 384.36 L 529.42 386.34 L 535.71 381.97 L 542.01 382.96 L 548.31 384.37 L 554.61 386.08 L 560.90 385.20 L 567.20 383.92 L 573.50 385.73 L 579.79 384.19 L 586.09 383.80 L 592.39 383.04 L 598.69 386.70 L 604.98 386.75 L 611.28 385.76 L 617.58 383.13 L 623.88 386.61 L 630.17 386.45 L 636.47 384.76 L 642.77 384.18 L 649.07 386.78 L 655.36 382.96 L 661.66 386.41 L 667.96 384.81 L 674.26 384.39 L 680.55 385.27 L 686.85 386.06 L 693.15 385.13 L 699.45 384.64 L 705.74 384.99 L 712.04 386.22 L 718.34 383.27 L 724.64 380.89 L 730.93 384.89 L 737.23 385.23 L 743.53 383.73 L 749.83 383.97 L 756.12 386.09 L 762.42 384.45 L 768.72 383.61 L 775.02 384.00 L 781.31 384.23 L 787.61 384.35 L 793.91 383.04 L 800.21 385.50 L 806.50 385.48 L 812.80 381.77 L 819.10 384.02 L 825.39 383.86 L 831.69 384.95 L 837.99 383.66" fill="none" stroke="#f59e0b" stroke-width="1.8" stroke-linecap="round" stroke-opacity="0.45"/>
<path d="M 485.33 238.21 L 491.63 253.28 L 497.93 345.37 L 504.23 372.63 L 510.52 381.45 L 516.82 380.46 L 523.12 386.67 L 529.42 386.57 L 535.71 384.14 L 542.01 383.73 L 548.31 386.05 L 554.61 384.80 L 560.90 385.51 L 567.20 384.14 L 573.50 386.15 L 579.79 384.17 L 586.09 386.15 L 592.39 384.72 L 598.69 384.42 L 604.98 382.70 L 611.28 384.69 L 617.58 384.78 L 623.88 383.98 L 630.17 386.03 L 636.47 384.52 L 642.77 385.90 L 649.07 385.90 L 655.36 384.16 L 661.66 383.74 L 667.96 386.71 L 674.26 385.45 L 680.55 385.90 L 686.85 384.07 L 693.15 385.81 L 699.45 384.42 L 705.74 384.29 L 712.04 380.53 L 718.34 384.86 L 724.64 385.12 L 730.93 384.34 L 737.23 386.07 L 743.53 384.75 L 749.83 383.53 L 756.12 385.37 L 762.42 385.57 L 768.72 385.76 L 775.02 383.94 L 781.31 385.65 L 787.61 384.83 L 793.91 383.05 L 800.21 384.89 L 806.50 384.29 L 812.80 384.28 L 819.10 383.98 L 825.39 384.87 L 831.69 385.79 L 837.99 385.31 L 844.29 385.21 L 850.58 384.64 L 856.88 385.06" fill="none" stroke="#ef4444" stroke-width="1.8" stroke-linecap="round" stroke-opacity="0.85"/>
<path d="M 485.33 234.34 L 491.63 232.82 L 497.93 263.39 L 504.23 265.09 L 510.52 262.16 L 516.82 264.84 L 523.12 267.23 L 529.42 266.63 L 535.71 264.62 L 542.01 263.41 L 548.31 265.92 L 554.61 266.70 L 560.90 265.82 L 567.20 265.40 L 573.50 267.33 L 579.79 266.38 L 586.09 266.39 L 592.39 264.82 L 598.69 266.52 L 604.98 264.62 L 611.28 266.31 L 617.58 265.80 L 623.88 265.27 L 630.17 265.13 L 636.47 265.00 L 642.77 266.75 L 649.07 265.71 L 655.36 265.90 L 661.66 264.85 L 667.96 267.03 L 674.26 266.26 L 680.55 265.21 L 686.85 265.37 L 693.15 266.90 L 699.45 266.76 L 705.74 266.03 L 712.04 264.57 L 718.34 263.55 L 724.64 266.97 L 730.93 265.44 L 737.23 266.48 L 743.53 265.60 L 749.83 263.63 L 756.12 266.75 L 762.42 265.99" fill="none" stroke="#ef4444" stroke-width="1.8" stroke-linecap="round" stroke-opacity="0.85"/>
<text x="495.3" y="426.0" font-size="11" fill="#374151">Thin lines are individual seeds; red trajectories are the highest-loss seeds.</text>
<text x="922.7" y="72.0" font-size="14" font-weight="700" fill="#111827">C. Weekly: active_g='forecast' collapses Generic variance</text>
<text x="922.7" y="90.0" font-size="11" fill="#4b5563">NBEATS-G_30s ag0: 11.61 ± 7.16 SMAPE; agf: 7.07 ± 0.24.</text>
<rect x="922.7" y="110.0" width="409.3" height="280.0" fill="#ffffff" stroke="#d1d5db" stroke-width="1"/>
<line x1="922.7" y1="388.29" x2="1332.0" y2="388.29" stroke="#e5e7eb" stroke-width="1"/>
<text x="914.7" y="392.29" font-size="11" text-anchor="end" fill="#4b5563">6</text>
<line x1="922.7" y1="353.86" x2="1332.0" y2="353.86" stroke="#e5e7eb" stroke-width="1"/>
<text x="914.7" y="357.86" font-size="11" text-anchor="end" fill="#4b5563">10</text>
<line x1="922.7" y1="319.44" x2="1332.0" y2="319.44" stroke="#e5e7eb" stroke-width="1"/>
<text x="914.7" y="323.44" font-size="11" text-anchor="end" fill="#4b5563">14</text>
<line x1="922.7" y1="285.01" x2="1332.0" y2="285.01" stroke="#e5e7eb" stroke-width="1"/>
<text x="914.7" y="289.01" font-size="11" text-anchor="end" fill="#4b5563">18</text>
<line x1="922.7" y1="250.59" x2="1332.0" y2="250.59" stroke="#e5e7eb" stroke-width="1"/>
<text x="914.7" y="254.59" font-size="11" text-anchor="end" fill="#4b5563">22</text>
<line x1="922.67" y1="390.0" x2="922.67" y2="395.0" stroke="#9ca3af" stroke-width="1"/>
<text x="922.67" y="408.0" font-size="11" text-anchor="middle" fill="#4b5563">0</text>
<line x1="1127.33" y1="390.0" x2="1127.33" y2="395.0" stroke="#9ca3af" stroke-width="1"/>
<text x="1127.33" y="408.0" font-size="11" text-anchor="middle" fill="#4b5563">21</text>
<line x1="1332.00" y1="390.0" x2="1332.00" y2="395.0" stroke="#9ca3af" stroke-width="1"/>
<text x="1332.00" y="408.0" font-size="11" text-anchor="middle" fill="#4b5563">43</text>
<path d="M 922.67 249.76 L 932.41 254.18 L 942.16 253.34 L 951.90 254.56 L 961.65 253.24 L 971.40 254.42 L 981.14 253.74 L 990.89 250.79 L 1000.63 253.30 L 1010.38 250.06 L 1020.13 251.17 L 1029.87 254.06 L 1039.62 253.69 L 1049.37 252.59 L 1059.11 254.88 L 1068.86 249.35 L 1078.60 253.66 L 1088.35 255.46 L 1098.10 251.03 L 1107.84 246.95 L 1117.59 253.13 L 1127.33 252.15 L 1137.08 252.28 L 1146.83 253.71 L 1156.57 254.95 L 1166.32 253.55 L 1176.06 253.73 L 1185.81 252.77 L 1195.56 253.47 L 1205.30 252.44 L 1215.05 253.37 L 1224.79 254.33 L 1234.54 253.95 L 1244.29 254.31 L 1254.03 252.42 L 1263.78 252.02 L 1273.52 251.84 L 1283.27 252.05" fill="none" stroke="#ef4444" stroke-width="1.5" stroke-linecap="round" stroke-opacity="0.35"/>
<path d="M 922.67 246.98 L 932.41 249.23 L 942.16 254.01 L 951.90 381.35 L 961.65 383.76 L 971.40 380.99 L 981.14 379.29 L 990.89 382.21 L 1000.63 379.18 L 1010.38 378.94 L 1020.13 380.36 L 1029.87 375.25 L 1039.62 377.87 L 1049.37 379.34 L 1059.11 382.09 L 1068.86 379.95 L 1078.60 379.62 L 1088.35 376.61 L 1098.10 381.80 L 1107.84 378.44 L 1117.59 380.38 L 1127.33 382.67 L 1137.08 374.76 L 1146.83 381.22 L 1156.57 379.76" fill="none" stroke="#ef4444" stroke-width="1.5" stroke-linecap="round" stroke-opacity="0.35"/>
<path d="M 922.67 246.53 L 932.41 254.11 L 942.16 254.39 L 951.90 252.82 L 961.65 255.03 L 971.40 250.24 L 981.14 254.48 L 990.89 253.13 L 1000.63 247.71 L 1010.38 249.32 L 1020.13 245.31 L 1029.87 251.98 L 1039.62 245.43 L 1049.37 251.63 L 1059.11 252.10 L 1068.86 245.23 L 1078.60 254.44 L 1088.35 376.56 L 1098.10 381.95 L 1107.84 377.97 L 1117.59 378.44 L 1127.33 374.58 L 1137.08 383.86 L 1146.83 381.53 L 1156.57 380.51 L 1166.32 383.52 L 1176.06 380.91 L 1185.81 383.51 L 1195.56 382.24 L 1205.30 382.87 L 1215.05 380.26 L 1224.79 380.33 L 1234.54 382.54 L 1244.29 379.82 L 1254.03 381.33 L 1263.78 381.02 L 1273.52 381.48 L 1283.27 382.92 L 1293.02 380.67 L 1302.76 382.47 L 1312.51 379.55 L 1322.25 382.31 L 1332.00 381.42" fill="none" stroke="#ef4444" stroke-width="1.5" stroke-linecap="round" stroke-opacity="0.35"/>
<path d="M 922.67 251.70 L 932.41 248.80 L 942.16 252.09 L 951.90 251.04 L 961.65 249.90 L 971.40 253.04 L 981.14 253.80 L 990.89 253.86 L 1000.63 249.33 L 1010.38 252.03 L 1020.13 250.95 L 1029.87 251.41 L 1039.62 247.99 L 1049.37 251.52 L 1059.11 372.60 L 1068.86 375.72 L 1078.60 381.62 L 1088.35 375.08 L 1098.10 380.35 L 1107.84 381.06 L 1117.59 376.05 L 1127.33 381.00 L 1137.08 381.27 L 1146.83 374.41 L 1156.57 378.63 L 1166.32 378.34 L 1176.06 380.98 L 1185.81 378.64 L 1195.56 376.11 L 1205.30 378.82 L 1215.05 381.17 L 1224.79 377.61 L 1234.54 379.33 L 1244.29 379.91 L 1254.03 381.39 L 1263.78 379.94 L 1273.52 377.87" fill="none" stroke="#ef4444" stroke-width="1.5" stroke-linecap="round" stroke-opacity="0.35"/>
<path d="M 922.67 375.48 L 932.41 379.40 L 942.16 382.41 L 951.90 383.15 L 961.65 380.14 L 971.40 382.93 L 981.14 376.51 L 990.89 384.41 L 1000.63 382.43 L 1010.38 376.57 L 1020.13 382.03 L 1029.87 377.09 L 1039.62 381.46 L 1049.37 380.67 L 1059.11 373.53 L 1068.86 379.06 L 1078.60 379.58 L 1088.35 371.52 L 1098.10 377.60 L 1107.84 380.70 L 1117.59 378.80 L 1127.33 375.39 L 1137.08 377.17 L 1146.83 379.51 L 1156.57 377.97 L 1166.32 381.09 L 1176.06 379.97 L 1185.81 381.28" fill="none" stroke="#ef4444" stroke-width="1.5" stroke-linecap="round" stroke-opacity="0.35"/>
<path d="M 922.67 252.45 L 932.41 256.13 L 942.16 252.11 L 951.90 253.28 L 961.65 254.81 L 971.40 252.67 L 981.14 254.70 L 990.89 252.25 L 1000.63 252.10 L 1010.38 254.12 L 1020.13 251.95 L 1029.87 252.29 L 1039.62 253.19 L 1049.37 253.94 L 1059.11 250.78 L 1068.86 251.18 L 1078.60 252.61 L 1088.35 252.40 L 1098.10 254.58 L 1107.84 252.44 L 1117.59 250.69 L 1127.33 253.24" fill="none" stroke="#ef4444" stroke-width="1.5" stroke-linecap="round" stroke-opacity="0.35"/>
<path d="M 922.67 376.38 L 932.41 381.97 L 942.16 378.94 L 951.90 378.50 L 961.65 383.98 L 971.40 384.67 L 981.14 384.58 L 990.89 381.11 L 1000.63 378.79 L 1010.38 378.38 L 1020.13 382.51 L 1029.87 380.61 L 1039.62 375.65 L 1049.37 377.79 L 1059.11 381.99 L 1068.86 377.99 L 1078.60 381.02 L 1088.35 382.26 L 1098.10 382.21 L 1107.84 384.80 L 1117.59 383.83 L 1127.33 380.37 L 1137.08 380.77 L 1146.83 379.69 L 1156.57 380.14 L 1166.32 382.19 L 1176.06 380.17 L 1185.81 379.22 L 1195.56 382.41 L 1205.30 381.70 L 1215.05 380.99 L 1224.79 382.30 L 1234.54 381.59 L 1244.29 381.41 L 1254.03 378.57 L 1263.78 380.80 L 1273.52 380.53 L 1283.27 377.53 L 1293.02 377.95 L 1302.76 382.20" fill="none" stroke="#ef4444" stroke-width="1.5" stroke-linecap="round" stroke-opacity="0.35"/>
<path d="M 922.67 374.22 L 932.41 383.53 L 942.16 384.05 L 951.90 381.57 L 961.65 381.50 L 971.40 384.03 L 981.14 382.13 L 990.89 381.23 L 1000.63 381.87 L 1010.38 382.49 L 1020.13 383.03 L 1029.87 381.58 L 1039.62 377.99 L 1049.37 381.08 L 1059.11 380.76 L 1068.86 380.43 L 1078.60 378.99 L 1088.35 379.76 L 1098.10 380.08 L 1107.84 382.51 L 1117.59 383.24 L 1127.33 380.28 L 1137.08 382.28" fill="none" stroke="#ef4444" stroke-width="1.5" stroke-linecap="round" stroke-opacity="0.35"/>
<path d="M 922.67 118.61 L 932.41 126.76 L 942.16 133.30 L 951.90 254.22 L 961.65 257.42 L 971.40 253.85 L 981.14 255.25 L 990.89 252.35 L 1000.63 255.16 L 1010.38 256.17 L 1020.13 250.26 L 1029.87 253.33 L 1039.62 252.34 L 1049.37 251.26 L 1059.11 254.25 L 1068.86 251.22 L 1078.60 253.59 L 1088.35 248.80 L 1098.10 250.10 L 1107.84 246.10 L 1117.59 251.71 L 1127.33 253.75 L 1137.08 247.13 L 1146.83 252.23 L 1156.57 253.31" fill="none" stroke="#ef4444" stroke-width="1.5" stroke-linecap="round" stroke-opacity="0.35"/>
<path d="M 922.67 378.14 L 932.41 381.28 L 942.16 384.61 L 951.90 381.60 L 961.65 384.53 L 971.40 382.44 L 981.14 377.76 L 990.89 383.05 L 1000.63 379.84 L 1010.38 380.39 L 1020.13 382.78 L 1029.87 379.97 L 1039.62 376.64 L 1049.37 381.26 L 1059.11 376.13 L 1068.86 380.17 L 1078.60 379.69 L 1088.35 376.55 L 1098.10 381.58 L 1107.84 378.27 L 1117.59 380.35 L 1127.33 379.32 L 1137.08 375.63" fill="none" stroke="#ef4444" stroke-width="1.5" stroke-linecap="round" stroke-opacity="0.35"/>
<path d="M 922.67 371.92 L 932.41 376.93 L 942.16 379.34 L 951.90 378.73 L 961.65 381.57 L 971.40 378.18 L 981.14 381.90 L 990.89 380.99 L 1000.63 378.91 L 1010.38 382.41 L 1020.13 378.58 L 1029.87 378.57 L 1039.62 381.51 L 1049.37 377.23 L 1059.11 376.51 L 1068.86 376.28 L 1078.60 376.56 L 1088.35 378.43 L 1098.10 378.06 L 1107.84 378.82 L 1117.59 375.74 L 1127.33 378.06 L 1137.08 375.73 L 1146.83 378.12 L 1156.57 375.81 L 1166.32 375.69 L 1176.06 377.91 L 1185.81 376.31 L 1195.56 377.02 L 1205.30 377.79" fill="none" stroke="#2563eb" stroke-width="1.5" stroke-linecap="round" stroke-opacity="0.45"/>
<path d="M 922.67 370.32 L 932.41 379.56 L 942.16 367.17 L 951.90 382.15 L 961.65 380.24 L 971.40 367.96 L 981.14 383.47 L 990.89 380.46 L 1000.63 378.06 L 1010.38 379.38 L 1020.13 380.98 L 1029.87 376.73 L 1039.62 378.07 L 1049.37 376.22 L 1059.11 377.97 L 1068.86 376.16 L 1078.60 375.59 L 1088.35 380.63 L 1098.10 375.36 L 1107.84 378.34 L 1117.59 376.50 L 1127.33 375.81 L 1137.08 373.77 L 1146.83 379.95 L 1156.57 377.86 L 1166.32 374.28 L 1176.06 377.34" fill="none" stroke="#2563eb" stroke-width="1.5" stroke-linecap="round" stroke-opacity="0.45"/>
<path d="M 922.67 371.32 L 932.41 379.16 L 942.16 376.11 L 951.90 380.42 L 961.65 376.36 L 971.40 379.77 L 981.14 378.52 L 990.89 381.12 L 1000.63 381.04 L 1010.38 381.89 L 1020.13 378.38 L 1029.87 374.65 L 1039.62 381.29 L 1049.37 376.66 L 1059.11 377.27 L 1068.86 378.63 L 1078.60 379.07 L 1088.35 374.22 L 1098.10 378.04 L 1107.84 371.24 L 1117.59 377.55 L 1127.33 377.85 L 1137.08 376.88 L 1146.83 377.07 L 1156.57 376.82 L 1166.32 372.94 L 1176.06 378.55 L 1185.81 378.54 L 1195.56 379.37 L 1205.30 374.17" fill="none" stroke="#2563eb" stroke-width="1.5" stroke-linecap="round" stroke-opacity="0.45"/>
<path d="M 922.67 376.92 L 932.41 375.04 L 942.16 380.31 L 951.90 377.90 L 961.65 379.67 L 971.40 380.48 L 981.14 382.63 L 990.89 373.67 L 1000.63 382.30 L 1010.38 377.58 L 1020.13 381.43 L 1029.87 373.65 L 1039.62 377.13 L 1049.37 377.53 L 1059.11 382.42 L 1068.86 378.14 L 1078.60 376.75 L 1088.35 376.60 L 1098.10 379.02 L 1107.84 375.18 L 1117.59 377.86 L 1127.33 378.48 L 1137.08 378.03 L 1146.83 376.50 L 1156.57 376.40 L 1166.32 377.81 L 1176.06 379.27" fill="none" stroke="#2563eb" stroke-width="1.5" stroke-linecap="round" stroke-opacity="0.45"/>
<path d="M 922.67 371.33 L 932.41 379.93 L 942.16 375.56 L 951.90 378.65 L 961.65 382.80 L 971.40 378.78 L 981.14 379.67 L 990.89 380.66 L 1000.63 380.99 L 1010.38 382.38 L 1020.13 379.61 L 1029.87 379.69 L 1039.62 383.12 L 1049.37 375.14 L 1059.11 381.41 L 1068.86 379.56 L 1078.60 376.33 L 1088.35 376.93 L 1098.10 375.47 L 1107.84 380.43 L 1117.59 376.15 L 1127.33 373.75 L 1137.08 378.89 L 1146.83 377.68 L 1156.57 378.96 L 1166.32 376.84 L 1176.06 381.67 L 1185.81 378.10 L 1195.56 376.46 L 1205.30 377.59 L 1215.05 378.73 L 1224.79 377.81 L 1234.54 378.31" fill="none" stroke="#2563eb" stroke-width="1.5" stroke-linecap="round" stroke-opacity="0.45"/>
<path d="M 922.67 375.55 L 932.41 379.31 L 942.16 377.91 L 951.90 375.66 L 961.65 381.43 L 971.40 380.07 L 981.14 375.39 L 990.89 383.57 L 1000.63 376.74 L 1010.38 374.96 L 1020.13 381.01 L 1029.87 376.96 L 1039.62 380.70 L 1049.37 376.48 L 1059.11 376.83 L 1068.86 378.64 L 1078.60 380.84 L 1088.35 377.72 L 1098.10 379.65 L 1107.84 376.79 L 1117.59 379.90 L 1127.33 381.72 L 1137.08 375.47 L 1146.83 378.54 L 1156.57 380.24 L 1166.32 377.44 L 1176.06 381.58 L 1185.81 378.90" fill="none" stroke="#2563eb" stroke-width="1.5" stroke-linecap="round" stroke-opacity="0.45"/>
<path d="M 922.67 369.30 L 932.41 373.76 L 942.16 381.20 L 951.90 378.31 L 961.65 381.57 L 971.40 381.61 L 981.14 379.56 L 990.89 379.84 L 1000.63 379.98 L 1010.38 378.87 L 1020.13 380.62 L 1029.87 382.43 L 1039.62 381.34 L 1049.37 380.86 L 1059.11 375.98 L 1068.86 378.25 L 1078.60 377.58 L 1088.35 380.64 L 1098.10 378.45 L 1107.84 377.36 L 1117.59 375.41 L 1127.33 376.33 L 1137.08 379.47 L 1146.83 376.79 L 1156.57 377.50 L 1166.32 373.30 L 1176.06 373.08 L 1185.81 378.24 L 1195.56 374.60 L 1205.30 377.99 L 1215.05 375.76 L 1224.79 369.96" fill="none" stroke="#2563eb" stroke-width="1.5" stroke-linecap="round" stroke-opacity="0.45"/>
<path d="M 922.67 372.92 L 932.41 374.37 L 942.16 376.82 L 951.90 380.38 L 961.65 379.27 L 971.40 374.24 L 981.14 375.44 L 990.89 381.99 L 1000.63 374.12 L 1010.38 380.50 L 1020.13 379.54 L 1029.87 378.46 L 1039.62 372.38 L 1049.37 377.31 L 1059.11 378.79 L 1068.86 378.16 L 1078.60 374.27 L 1088.35 376.83 L 1098.10 370.50 L 1107.84 377.91 L 1117.59 372.87 L 1127.33 377.94 L 1137.08 378.50 L 1146.83 376.32 L 1156.57 377.69 L 1166.32 375.61 L 1176.06 373.42 L 1185.81 375.37" fill="none" stroke="#2563eb" stroke-width="1.5" stroke-linecap="round" stroke-opacity="0.45"/>
<path d="M 922.67 370.86 L 932.41 373.42 L 942.16 380.82 L 951.90 379.88 L 961.65 382.22 L 971.40 383.27 L 981.14 384.00 L 990.89 384.17 L 1000.63 382.05 L 1010.38 385.70 L 1020.13 384.72 L 1029.87 375.41 L 1039.62 374.18 L 1049.37 382.13 L 1059.11 379.86 L 1068.86 382.12 L 1078.60 381.71 L 1088.35 378.94 L 1098.10 380.72 L 1107.84 378.40 L 1117.59 380.86 L 1127.33 381.39 L 1137.08 378.83 L 1146.83 375.55 L 1156.57 376.77 L 1166.32 380.73 L 1176.06 380.62 L 1185.81 377.99 L 1195.56 380.03 L 1205.30 378.50" fill="none" stroke="#2563eb" stroke-width="1.5" stroke-linecap="round" stroke-opacity="0.45"/>
<path d="M 922.67 373.36 L 932.41 378.30 L 942.16 380.49 L 951.90 380.54 L 961.65 372.41 L 971.40 374.96 L 981.14 382.78 L 990.89 383.72 L 1000.63 381.85 L 1010.38 376.83 L 1020.13 382.79 L 1029.87 377.65 L 1039.62 380.05 L 1049.37 374.49 L 1059.11 378.71 L 1068.86 378.70 L 1078.60 379.10 L 1088.35 375.14 L 1098.10 378.59 L 1107.84 379.00 L 1117.59 373.95 L 1127.33 378.62 L 1137.08 372.80 L 1146.83 378.85 L 1156.57 379.20 L 1166.32 373.10 L 1176.06 375.94 L 1185.81 371.95" fill="none" stroke="#2563eb" stroke-width="1.5" stroke-linecap="round" stroke-opacity="0.45"/>
<path d="M 922.67 287.02 L 932.41 291.54 L 942.16 292.93 L 951.90 317.21 L 961.65 318.43 L 971.40 317.93 L 981.14 317.22 L 990.89 317.44 L 1000.63 315.97 L 1010.38 315.85 L 1020.13 316.03 L 1029.87 315.76 L 1039.62 314.22 L 1049.37 316.11 L 1059.11 327.91 L 1068.86 327.03 L 1078.60 329.48 L 1088.35 339.50 L 1098.10 342.13 L 1107.84 340.92 L 1117.59 341.66 L 1127.33 341.28 L 1137.08 350.57 L 1146.83 343.19 L 1156.57 343.61 L 1166.32 355.74 L 1176.06 355.15 L 1185.81 355.09 L 1195.56 348.56 L 1205.30 348.96 L 1215.05 348.95 L 1224.79 348.64 L 1234.54 349.35 L 1244.29 348.86 L 1254.03 348.43 L 1263.78 348.44 L 1273.52 347.93 L 1283.27 337.50 L 1293.02 379.31 L 1302.76 382.33 L 1312.51 379.55 L 1322.25 382.31 L 1332.00 381.42" fill="none" stroke="#b91c1c" stroke-width="3.0" stroke-linecap="round"/>
<path d="M 922.67 372.38 L 932.41 376.98 L 942.16 377.57 L 951.90 379.26 L 961.65 379.75 L 971.40 377.93 L 981.14 380.34 L 990.89 381.02 L 1000.63 379.60 L 1010.38 380.05 L 1020.13 380.77 L 1029.87 377.42 L 1039.62 378.98 L 1049.37 377.40 L 1059.11 378.57 L 1068.86 378.47 L 1078.60 377.78 L 1088.35 377.61 L 1098.10 377.39 L 1107.84 377.35 L 1117.59 376.68 L 1127.33 377.99 L 1137.08 376.84 L 1146.83 377.54 L 1156.57 377.72 L 1166.32 375.77 L 1176.06 377.94 L 1185.81 376.93 L 1195.56 377.50 L 1205.30 377.21 L 1215.05 377.25 L 1224.79 373.88 L 1234.54 378.31" fill="none" stroke="#1d4ed8" stroke-width="3.0" stroke-linecap="round"/>
<line x1="932.7" y1="424.0" x2="950.7" y2="424.0" stroke="#b91c1c" stroke-width="3.0" stroke-linecap="round"/>
<text x="956.7" y="428.0" font-size="11" fill="#374151">ag0 seeds + mean</text>
<line x1="932.7" y1="440.0" x2="950.7" y2="440.0" stroke="#1d4ed8" stroke-width="3.0" stroke-linecap="round"/>
<text x="956.7" y="444.0" font-size="11" fill="#374151">agf seeds + mean</text>
<text x="252.7" y="462.0" font-size="12" text-anchor="middle" fill="#374151">Epoch</text>
<text x="14.0" y="250.0" font-size="12" text-anchor="middle" fill="#374151" transform="rotate(-90 14.0 250.0)">Validation SMAPE</text>
<text x="690.0" y="462.0" font-size="12" text-anchor="middle" fill="#374151">Epoch</text>
<text x="451.3" y="250.0" font-size="12" text-anchor="middle" fill="#374151" transform="rotate(-90 451.3 250.0)">Validation SMAPE</text>
<text x="1127.3" y="462.0" font-size="12" text-anchor="middle" fill="#374151">Epoch</text>
<text x="888.7" y="250.0" font-size="12" text-anchor="middle" fill="#374151" transform="rotate(-90 888.7 250.0)">Validation SMAPE</text>
</svg>